# xmcd
#
# Track frame offsets:
#	150
#	22234
#	39310
#	64308
#	88627
#	112996
#	137275
#	166022
#	195441
#	219127
#
# Disc length: 3157 seconds
#
# Revision: 1
# Processed by: cddbd v1.5.2PL0 Copyright (c) Steve Scherf et al.
# Submitted via: audiograbber 1.83.01
#
DISCID=780c530a
DTITLE=Stellmäcke and Trotzband - Vérité et Poésie
DYEAR=2015
DGENRE=deutsch
TTITLE0=Vérité et Poésie
TTITLE1=Schlafwandler
TTITLE2=Asyl
TTITLE3=Banal
TTITLE4=Der Rettungsschirm
TTITLE5=Johnny
TTITLE6=Das schafft ernie
TTITLE7=Te Saludo, Mi Amigo
TTITLE8=Laß mich bei dir sein
TTITLE9=Glückliches Ende
EXTD=
EXTT0=
EXTT1=
EXTT2=
EXTT3=
EXTT4=
EXTT5=
EXTT6=
EXTT7=
EXTT8=
EXTT9=
PLAYORDER=
